inDegrees=no
num_controls=7
num_derivatives=13
num_iterations=108
num_multipliers=7
num_parameters=0
num_slacks=7
num_states=26
objective=4.191143
objective_accelerations=0.667701
objective_balance=0.023727
objective_effort=0.657867
objective_height=2.787952
objective_ligament=0.053897
solver_duration=1117.799770
status=Solve_Succeeded
success=true
DataType=double
version=3
OpenSimVersion=4.4-2022-07-23-0e9fedc
endheader
time	/jointset/ground_pelvis/pelvis_tilt/value	/jointset/ground_pelvis/pelvis_tx/value	/jointset/ground_pelvis/pelvis_ty/value	/jointset/hip_l/hip_flexion_l/value	/jointset/hip_l/hip_adduction_l/value	/jointset/hip_l/hip_rotation_l/value	/jointset/back/lumbar_extension/value	/jointset/patellofemoral_l/patellar_flexion_l/value	/jointset/knee_l/knee_flexion_l/value	/jointset/knee_l/knee_adduction_l/value	/jointset/knee_l/knee_rotation_l/value	/jointset/ankle_l/ankle_angle_l/value	/jointset/subtalar_l/subtalar_angle_l/value	/jointset/ground_pelvis/pelvis_tilt/speed	/jointset/ground_pelvis/pelvis_tx/speed	/jointset/ground_pelvis/pelvis_ty/speed	/jointset/hip_l/hip_flexion_l/speed	/jointset/hip_l/hip_adduction_l/speed	/jointset/hip_l/hip_rotation_l/speed	/jointset/back/lumbar_extension/speed	/jointset/patellofemoral_l/patellar_flexion_l/speed	/jointset/knee_l/knee_flexion_l/speed	/jointset/knee_l/knee_adduction_l/speed	/jointset/knee_l/knee_rotation_l/speed	/jointset/ankle_l/ankle_angle_l/speed	/jointset/subtalar_l/subtalar_angle_l/speed	/forceset/tau_hip_flexion_l	/forceset/tau_hip_adduction_l	/forceset/tau_hip_rotation_l	/forceset/tau_knee_flexion_l	/forceset/tau_ankle_angle_l	/forceset/tau_subtalar_angle_l	/forceset/tau_lumbar_extension	lambda_cid13_p0	lambda_cid13_p1	lambda_cid13_p2	lambda_cid13_p3	lambda_cid13_p4	lambda_cid13_p5	lambda_cid14_p0	/jointset/ground_pelvis/pelvis_tilt/accel	/jointset/ground_pelvis/pelvis_tx/accel	/jointset/ground_pelvis/pelvis_ty/accel	/jointset/hip_l/hip_flexion_l/accel	/jointset/hip_l/hip_adduction_l/accel	/jointset/hip_l/hip_rotation_l/accel	/jointset/back/lumbar_extension/accel	/jointset/patellofemoral_l/patellar_flexion_l/accel	/jointset/knee_l/knee_flexion_l/accel	/jointset/knee_l/knee_adduction_l/accel	/jointset/knee_l/knee_rotation_l/accel	/jointset/ankle_l/ankle_angle_l/accel	/jointset/subtalar_l/subtalar_angle_l/accel	gamma_cid13_p0	gamma_cid13_p1	gamma_cid13_p2	gamma_cid13_p3	gamma_cid13_p4	gamma_cid13_p5	gamma_cid14_p0
1.5	-0.05312757608620036	-0.05730085186725347	0.7519146426729393	1.084039402332172	-0.307297898151707	-0.0814543439854219	-0.8251225535932555	1.167055452439799	1.1670554524394	0.02558937407364882	-0.1745313354949286	0.2286475572462424	0.07236389714075704	0.3758985889301089	0.2536694807377682	0.8876273609956524	-3.072126521252325	0.04404487615446195	-0.6407845459215259	0.7807444770565353	-3.0181501644806	-3.018150164480445	-0.478649785831022	-6.589463251512875e-06	-0.5083920380232222	-0.1565289104850278	-0.2458082179015574	0.007924012034709054	-0.01756462193034415	-0.3021746451293402	0.107751772749076	0.04984473370382018	0.3125925052392363	-4.953524200796951	-18.94439626189098	0.4689705652997242	-19.56278868916377	-648.7622952780913	-72.26404420701313	-1.55210248291578	1.191917490375157	1.265401063502514	-1.141263063372134	-1.200681703089063	0.3606519921109654	-0.6682725474495428	2.475950981980292	-1.722243267283214	-1.722243267283215	-0.2861640230498569	0.08441374320590124	-1.844339963191675	-0.2320635307957036	5.331803143526275e-07	3.790584971780629e-06	-1.00276926795471e-06	4.92377227270024e-07	6.655593754719113e-07	2.710802502063267e-07	6.745849808820704e-07
1.51	-0.04930988348813649	-0.05470107222999711	0.7607318564582319	1.053260741318253	-0.3068416012219635	-0.08789734010953981	-0.8171922756669068	1.136791194593961	1.136791194593845	0.02078684552610894	-0.1745315414481191	0.22347258352389	0.07078488118571426	0.3875093790873646	0.2662615023273726	0.8756094035953544	-3.083247028501952	0.04720987044375469	-0.6478024468884611	0.8052566968667203	-3.034303062176952	-3.034303062176878	-0.4818455779757052	-3.015742509864143e-05	-0.5264174731577098	-0.1591885362663922	-0.2365303405821426	0.008183631339677427	-0.01686630736016509	-0.2939808672639215	0.1065431056564554	0.04968247446114399	0.3030599600389925	-4.784720177941737	-19.09950213273455	0.7175992238448496	-19.41095908163239	-639.4818788437075	-72.0458986587101	-2.215560736427936	1.126130100060056	1.252458981995193	-1.262812368785208	-1.013881325607472	0.2935050286526883	-0.7159687320638083	2.430695778539618	-1.502205264098833	-1.502205264110903	-0.3339874862479845	-0.04525777493489621	-1.753653130245334	-0.2705955539919217	5.715343238114332e-07	4.063932624049618e-06	-1.056827332195337e-06	4.905881950024078e-07	7.166032989154037e-07	4.425560005622959e-07	7.033042149526919e-07
1.52	-0.04537998892416838	-0.05197610112178343	0.7694227406114369	1.022381646013894	-0.3063538379730633	-0.09440999921547816	-0.8090185078828566	1.106377329322502	1.106377329322668	0.01595281892189649	-0.1745318862227077	0.218122953881859	0.06918173228242082	0.3983389821109891	0.2787077749292347	0.8623614345780085	-3.092213379339898	0.05033813998561757	-0.6547171422853266	0.8294424485969856	-3.04807164960481	-3.048071649604816	-0.4849493971632041	-3.435374914051328e-05	-0.5433232219589194	-0.1613555001351605	-0.2272524632627378	0.008443250644646086	-0.01616799279003639	-0.2857870893985071	0.1053344385638357	0.04952021521846965	0.2935274148387392	-4.613494521803571	-19.26988340115198	0.985626972824346	-19.32833345776083	-630.1804833156907	-71.9261349580816	-2.988104658180611	1.035680063648958	1.236251265954064	-1.387265386781718	-0.7698504207529665	0.3533070426250923	-0.6476314334354801	2.410657365996384	-1.245381213584193	-1.24538121358414	-0.2677694316129601	0.08828807076712052	-1.620402696536086	-0.1335311482763801	6.08798764876418e-07	4.39574488553458e-06	-1.063759854415011e-06	4.977841976914283e-07	7.729108816335516e-07	6.403146845321486e-07	7.33646142564735e-07
1.53	-0.04134564709547424	-0.04912749019950392	0.7779751716908548	0.9914234003349349	-0.3058350285488151	-0.1009917434785962	-0.8006048976908535	1.075837682430965	1.07583768243095	0.01108824358956109	-0.1745324958202151	0.2126099812822492	0.06755935790106794	0.4083922843937193	0.2909792181578512	0.8479322406189688	-3.099067657977561	0.05342544556346538	-0.6616021673077114	0.8532018428439122	-3.05943999117725	-3.059439991177289	-0.4879606596123023	-6.712936596971874e-05	-0.5590683089524584	-0.1630230377473941	-0.217884991712909	0.008485096794782631	-0.01550779469860762	-0.2780667796077051	0.1043339777463323	0.04903217989315544	0.2839241489874804	-4.425475178467867	-19.28775089603312	1.213383283940624	-19.1234213965689	-621.2856628994449	-71.58813251772644	-3.867042955201251	0.9696375668212845	1.217416843893895	-1.499453913557637	-0.5879505279929425	0.2863710351767023	-0.7036986695886799	2.346918410057576	-1.020056576055545	-1.020056576060677	-0.3161929856271116	-0.04615539369373018	-1.520870681946797	-0.1695969958369415	6.44905539522968e-07	4.789675794311511e-06	-1.020621488237422e-06	5.145268000218756e-07	8.348111023310209e-07	8.659989854667523e-07	7.657121820645388e-07
1.54	-0.03721487579270519	-0.04615719964642243	0.7863775693280645	0.9604076650810545	-0.3052853603248253	-0.1076412901185264	-0.7919560259651788	1.045196852934307	1.045196852934112	0.006193877965915006	-0.1745328521770529	0.2069456960164675	0.06592306175796472	0.4176248769258951	0.3030437010896299	0.8323547461362448	-3.103711294324023	0.05650989993379276	-0.6682776176480439	0.8764947553315093	-3.068308170628959	-3.068308170629034	-0.4909074554241536	1.629438576885158e-05	-0.5735857551933577	-0.164139852485231	-0.2085175201630877	0.008526942944928645	-0.01484759660719625	-0.2703464698169049	0.1033335169288318	0.04854414456785475	0.2743208831362126	-4.230813462797251	-19.3229973423385	1.462432524664264	-18.99900112542786	-612.3143239338427	-71.35037439447257	-4.851336677519141	0.8715381135381393	1.194859206586463	-1.61692549151852	-0.3277219625126098	0.352736801121137	-0.6057164970249187	2.317361014130533	-0.7453487894382885	-0.7453487894382848	-0.2548761041635248	0.1115279444809331	-1.374874546008201	-0.02338657339691162	6.705769807368354e-07	5.162992537816042e-06	-9.505341859105499e-07	5.365522392655657e-07	8.863934146495719e-07	1.081758717578919e-06	7.922194210449094e-07
1.55	-0.03299587330209982	-0.04306746188961334	0.7946186362534451	0.9293564838976832	-0.304704639108362	-0.1143569609293586	-0.7830769180347547	1.014479777088215	1.01447977708816	0.001270817935580066	-0.1745317075617199	0.2011423890062949	0.06427862387314501	0.4260333894610562	0.3148513803850089	0.8156825000989296	-3.106138501301134	0.0596596541153648	-0.6748014458768355	0.8992190572075919	-3.074679044059643	-3.074679044059765	-0.493676471886045	0.0002783425213324406	-0.586867013018509	-0.1646261244832601	-0.1992748890326109	0.008324088472924174	-0.01425589702784364	-0.2628946261263802	0.1019505829891991	0.04788208444305943	0.2647793386103914	-4.215340012661227	-19.25467536109569	1.698837061932497	-18.53999429028223	-603.909099980571	-71.02176229061065	-5.938555796130144	0.804211516423483	1.165967864411712	-1.718605358012814	-0.1422113384881641	0.2994443920636858	-0.6666158441546468	2.233798742451834	-0.5189281383118697	-0.5189281383190995	-0.2827420013804363	-0.006720435918846603	-1.273186401435735	-0.04382676020525311	6.842251029956557e-07	5.512558177854546e-06	-8.493970223682018e-07	5.646644253875572e-07	9.260877020967612e-07	1.286083620395671e-06	8.123219550789773e-07
1.56	-0.02869704494755748	-0.03986119822517075	0.8026877344788179	0.8982926323899042	-0.3040917504170041	-0.1211360499941547	-0.7739738002919492	0.9837117982041333	0.9837117982042127	-0.003678897776209905	-0.1745259952013762	0.1952125824177363	0.06263280741890516	0.4335900497129466	0.3263488826163319	0.7979610061346528	-3.106245359205356	0.06294339491247751	-0.6809612684395655	0.921296717807862	-3.078488778227466	-3.078488778227636	-0.4962385917150783	0.0009298432963719513	-0.5988856708703462	-0.164415566369266	-0.1900322579021517	0.0081212340008985	-0.01366419744852083	-0.2554427824358577	0.1005676490495632	0.04722002431823748	0.2552377940845575	-4.191416193874777	-19.20442210424975	1.957070597360687	-18.16595234003478	-595.4043495679454	-70.79312581488921	-7.122588060537637	0.7011676568840084	1.132823793775239	-1.826775076910888	0.1363478520653042	0.3795341242291185	-0.5329153638128455	2.188032758968066	-0.233120936866143	-0.2331209368661412	-0.2134967775919434	0.189418472375717	-1.122354551345401	0.1159794490075407	6.859512140600703e-07	5.635669681081346e-06	-8.363418505939831e-07	5.642174133360475e-07	9.45810042667531e-07	1.4099384922945e-06	8.143177054108655e-07
1.57	-0.02432701169998185	-0.03654161164714419	0.8105745390930414	0.867239441440383	-0.3034453383758721	-0.1279746135166829	-0.7646533043989534	0.9529186816330398	0.9529186816329926	-0.008653489904817782	-0.1745116433030236	0.1891689961850824	0.06099260368659148	0.4402671103574293	0.3375048507369101	0.7792419773500926	-3.103992988781099	0.066342230429955	-0.6866922387286909	0.9426710973278601	-3.079691730882189	-3.079691730882237	-0.4986767192686263	0.001973723052405852	-0.6096189008210229	-0.1635353559208186	-0.1807715679468849	0.007739906098281455	-0.01314113410628882	-0.2486980056170759	0.09957002035743988	0.0461441833481999	0.2457543080489533	-4.116161453784688	-18.9663939769788	2.165884012654002	-17.68238597610544	-587.5991604211034	-70.30317172230906	-8.393297160191537	0.6285849832669019	1.097547435339205	-1.917970173455101	0.3296962381866254	0.3201248405524441	-0.5835258626666258	2.092436028970609	0.002381976996895948	0.002381977015289473	-0.2576118377700178	0.06668025937136865	-1.016658414342835	0.08677145378493419	6.727748111314778e-07	5.475713513293518e-06	-9.333891685299252e-07	5.28071403567662e-07	9.405674496427768e-07	1.433205825545927e-06	7.936799761150295e-07
1.58	-0.0198946859029538	-0.03311235256508371	0.8182694527405746	0.8362207771152186	-0.3027649246645556	-0.1348685543423458	-0.7551230056146675	0.9221267884167601	0.9221267884165745	-0.01365219152768063	-0.1744858911006676	0.1830245074134384	0.05936374798096661	0.4460485596033675	0.3482833834231163	0.7595828127965015	-3.099340034333614	0.06974372894924917	-0.6920367290659841	0.963257296066054	-3.078244107266019	-3.078244107265945	-0.5010604905635258	0.003209904094603298	-0.619066178668261	-0.162145961031508	-0.1715108779916346	0.007358578195655743	-0.01261807076416718	-0.2419532287983013	0.0985723916653156	0.04506834237815355	0.2362708220133357	-4.035583707290868	-18.73967675455945	2.388356055431935	-17.26200212224173	-579.7397545199655	-69.90584884720285	-9.678337637112518	0.5220453771751463	1.057336706900856	-2.014802230717058	0.6164646567108728	0.3800667245924755	-0.4556193734463721	2.030396602607252	0.2969943173127056	0.296994317312663	-0.2026255258622122	0.2278787296084109	-0.8651641306576826	0.2178163371801632	6.569228187706338e-07	5.42191632809794e-06	-9.465182267140817e-07	5.10823375872902e-07	9.369901516169788e-07	1.477100880872842e-06	7.782398299755888e-07
